<svg width="650" height="780" viewBox="0 0 650 780" fill="none" xmlns="http://www.w3.org/2000/svg">
<style>
@keyframes kf_bottom-tile-3_transform_0 {
  0% {
    animation-timing-function: ease-in-out;
    transform: translateY(192.42px) translateX(0px) translateY(-200.421px);
  }
  33.33% {
    transform: translateY(192.42px) translateX(0px) translateY(-0.421px);
  }
  100% {
    transform: translateY(192.42px) translateX(0px) translateY(-0.421px);
  }
}
@keyframes kf_bottom-tile-3_opacity_0 {
  0% {
    animation-timing-function: cubic-bezier(0.5, 0, 0.5, 1);
    opacity: 0;
  }
  22.22% {
    animation-timing-function: linear;
    opacity: 1;
  }
  100% {
    opacity: 1;
  }
}
#bottom-tile-3 {
  transform-origin: 0 0;
  animation:
    kf_bottom-tile-3_transform_0 1.8s linear,
    kf_bottom-tile-3_opacity_0 1.8s linear;
}
@keyframes kf_bottom-tile-2_transform_0 {
  0% {
    transform: translateY(128.42px) translateX(0px) translateY(-200.421px);
  }
  22.22% {
    animation-timing-function: ease-in-out;
    transform: translateY(128.42px) translateX(0px) translateY(-200.421px);
  }
  55.56% {
    transform: translateY(128.42px) translateX(0px) translateY(-0.421px);
  }
  100% {
    transform: translateY(128.42px) translateX(0px) translateY(-0.421px);
  }
}
@keyframes kf_bottom-tile-2_opacity_0 {
  0% {
    animation-timing-function: linear;
    opacity: 0;
  }
  22.22% {
    animation-timing-function: cubic-bezier(0.5, 0, 0.5, 1);
    opacity: 0;
  }
  44.44% {
    animation-timing-function: linear;
    opacity: 1;
  }
  100% {
    opacity: 1;
  }
}
#bottom-tile-2 {
  transform-origin: 0 0;
  animation:
    kf_bottom-tile-2_transform_0 1.8s linear,
    kf_bottom-tile-2_opacity_0 1.8s linear;
}
@keyframes kf_bottom-tile-1_transform_0 {
  0% {
    transform: translateY(64px) translateX(0px) translateY(-200px);
  }
  44.44% {
    animation-timing-function: ease-in-out;
    transform: translateY(64px) translateX(0px) translateY(-200px);
  }
  77.78% {
    transform: translateY(64px) translateX(0px) translateY(0px);
  }
  100% {
    transform: translateY(64px) translateX(0px) translateY(0px);
  }
}
@keyframes kf_bottom-tile-1_opacity_0 {
  0% {
    animation-timing-function: linear;
    opacity: 0;
  }
  44.44% {
    animation-timing-function: cubic-bezier(0.5, 0, 0.5, 1);
    opacity: 0;
  }
  66.67% {
    animation-timing-function: linear;
    opacity: 1;
  }
  100% {
    opacity: 1;
  }
}
#bottom-tile-1 {
  transform-origin: 0 0;
  animation:
    kf_bottom-tile-1_transform_0 1.8s linear,
    kf_bottom-tile-1_opacity_0 1.8s linear;
}
@keyframes kf_top-tile_transform_0 {
  0% {
    transform: translateX(0px) translateY(-200px);
  }
  66.67% {
    animation-timing-function: ease-in-out;
    transform: translateX(0px) translateY(-200px);
  }
  100% {
    transform: translateX(0px) translateY(0px);
  }
}
@keyframes kf_top-tile_opacity_0 {
  0% {
    animation-timing-function: linear;
    opacity: 0;
  }
  66.67% {
    animation-timing-function: cubic-bezier(0.5, 0, 0.5, 1);
    opacity: 0;
  }
  88.89% {
    animation-timing-function: linear;
    opacity: 1;
  }
  100% {
    opacity: 1;
  }
}
#top-tile {
  transform-origin: 0 0;
  animation:
    kf_top-tile_transform_0 1.8s linear,
    kf_top-tile_opacity_0 1.8s linear;
}
</style>
<g id="banner-animation" clip-path="url(#clip0_3339_4368)">
<mask id="mask0_3339_4368" style="mask-type:alpha" maskUnits="userSpaceOnUse" x="0" y="0" width="650" height="780">
<rect id="mask" transform="translate(-396 -28)" width="1442" height="815" rx="1000" fill="url(#paint0_radial_3339_4368)"/>
</mask>
<g mask="url(#mask0_3339_4368)">
<g id="tiles" transform="translate(13 203.58)">
<g id="bottom-tile-3" clip-path="url(#clip1_3339_4368)" transform="translate(0 192.42)">
<g id="Layer_1" transform="translate(-0.0018369 0.00481743)">
<g id="Group">
<path id="Vector" transform="translate(0.022159 180.353)" d="M624.638 0.0138755V22.1713C624.221 28.2383 619.57 34.569 610.921 39.5808L342.519 194.53C333.495 199.75 322.055 202.444 311.087 202.499C301.758 202.555 292.887 200.708 286.25 196.849L9.74019 37.1929C2.8264 33.1807 -0.380605 27.8079 0.0358888 22.1575V0H624.638V0.0138755Z" fill="#1F3D94"/>
<path id="Vector_2" transform="translate(311.114 180.365)" d="M313.55 0V22.1575C313.134 28.2244 308.483 34.5551 299.834 39.5669L31.4314 194.516C22.4074 199.737 10.9677 202.43 0 202.485V0.0138755H313.536L313.55 0Z" fill="#213E94"/>
<path id="Vector_3" d="M286.273 355.072L9.73484 195.416C-4.68973 187.086 -2.87104 172.551 13.7748 162.944L282.219 7.95245C298.865 -1.65468 324.063 -2.7098 338.473 5.62008L615.011 165.276C629.436 173.606 627.617 188.142 610.971 197.749L342.527 352.74C325.881 362.347 300.684 363.402 286.273 355.072Z" fill="#05237A"/>
</g>
</g>
<g id="tile-icon" clip-path="url(#clip2_3339_4368)" transform="matrix(0.866025 0.5 -0.866025 0.5 313 101)">
<path id="Vector_4" transform="translate(0 10)" d="M52.5625 110.281C47.875 108.594 42.6562 109.312 38.625 112.281C36.0625 114.156 31.6562 116.906 26.3125 119.375C28.0625 114.781 29.4063 109.594 29.8438 103.938C30.1562 99.9063 28.8125 95.9063 26.1562 92.8438C18.875 84.625 15 75 15 65C15 40.1562 41.0313 15 80 15C118.969 15 145 40.1562 145 65C145 89.8438 118.969 115 80 115C70.125 115 60.8437 113.281 52.5625 110.281ZM8.21875 122.437C7.71875 123.281 7.1875 124.125 6.625 124.969L6.53125 125.125C6.03125 125.844 5.53125 126.562 5.03125 127.281C3.9375 128.75 2.75 130.187 1.5 131.5C0.0625001 132.937 -0.34375 135.063 0.4375 136.938C1.21875 138.813 3.03125 140.031 5.0625 140.031C6.65625 140.031 8.25 139.937 9.84375 139.781L10.0625 139.75C11.4375 139.594 12.8125 139.406 14.1875 139.156C14.4375 139.125 14.6875 139.062 14.9375 139C20.5 137.906 25.8438 136.031 30.5938 133.969C37.75 130.844 43.8437 127.125 47.5625 124.406C57.5 128 68.5 130 80.0937 130C124.281 130 160.094 100.906 160.094 65C160.094 29.0937 124.187 0 80 0C35.8125 0 0 29.0937 0 65C0 79.0937 5.53125 92.125 14.9063 102.781C14.3125 110.437 11.3437 117.25 8.21875 122.437ZM45 75C47.6522 75 50.1957 73.9464 52.0711 72.0711C53.9464 70.1957 55 67.6522 55 65C55 62.3478 53.9464 59.8043 52.0711 57.9289C50.1957 56.0536 47.6522 55 45 55C42.3478 55 39.8043 56.0536 37.9289 57.9289C36.0536 59.8043 35 62.3478 35 65C35 67.6522 36.0536 70.1957 37.9289 72.0711C39.8043 73.9464 42.3478 75 45 75ZM90 65C90 62.3478 88.9464 59.8043 87.0711 57.9289C85.1957 56.0536 82.6522 55 80 55C77.3478 55 74.8043 56.0536 72.9289 57.9289C71.0536 59.8043 70 62.3478 70 65C70 67.6522 71.0536 70.1957 72.9289 72.0711C74.8043 73.9464 77.3478 75 80 75C82.6522 75 85.1957 73.9464 87.0711 72.0711C88.9464 70.1957 90 67.6522 90 65ZM115 75C117.652 75 120.196 73.9464 122.071 72.0711C123.946 70.1957 125 67.6522 125 65C125 62.3478 123.946 59.8043 122.071 57.9289C120.196 56.0536 117.652 55 115 55C112.348 55 109.804 56.0536 107.929 57.9289C106.054 59.8043 105 62.3478 105 65C105 67.6522 106.054 70.1957 107.929 72.0711C109.804 73.9464 112.348 75 115 75Z" fill="#7B98ED"/>
</g>
</g>
<g id="bottom-tile-2" clip-path="url(#clip3_3339_4368)" transform="translate(0 128.42)">
<g id="Layer_1_2" transform="translate(-0.0018369 0.00481743)">
<g id="Group_2">
<path id="Vector_5" transform="translate(0.022159 180.353)" d="M624.638 0.0138755V22.1713C624.221 28.2383 619.57 34.569 610.921 39.5808L342.519 194.53C333.495 199.75 322.055 202.444 311.087 202.499C301.758 202.555 292.887 200.708 286.25 196.849L9.74019 37.1929C2.8264 33.1807 -0.380605 27.8079 0.0358888 22.1575V0H624.638V0.0138755Z" fill="#1F3D94"/>
<path id="Vector_6" transform="translate(311.114 180.365)" d="M313.55 0V22.1575C313.134 28.2244 308.483 34.5551 299.834 39.5669L31.4314 194.516C22.4074 199.737 10.9677 202.43 0 202.485V0.0138755H313.536L313.55 0Z" fill="#213E94"/>
<path id="Vector_7" d="M286.273 355.072L9.73484 195.416C-4.68973 187.086 -2.87104 172.551 13.7748 162.944L282.219 7.95245C298.865 -1.65468 324.063 -2.7098 338.473 5.62008L615.011 165.276C629.436 173.606 627.617 188.142 610.971 197.749L342.527 352.74C325.881 362.347 300.684 363.402 286.273 355.072Z" fill="#05237A"/>
</g>
</g>
<g id="tile-icon_2" clip-path="url(#clip4_3339_4368)" transform="matrix(0.866025 0.5 -0.866025 0.5 305 106)">
<path id="Vector_8" transform="translate(8.88889)" d="M128.083 53.3333H88.8889V14.1389C108.75 17.7778 124.444 33.4722 128.083 53.3333ZM88.8889 66.6667H137.611C140.111 66.6667 142.222 64.7222 142.222 62.2222C142.222 27.8611 114.361 0 80 0C77.5 0 75.5556 2.11111 75.5556 4.61111V53.3333V66.6667H88.8889ZM52.8056 89.4167L87.8889 124.5C81.3889 127.333 74.2222 128.889 66.6667 128.889C37.2222 128.889 13.3333 105 13.3333 75.5556C13.3333 52.3333 28.1667 32.5833 48.8889 25.25V80C48.8889 83.5278 50.3056 86.9167 52.8056 89.4167ZM57.5 9.52778C25.0278 13.9722 0 41.8611 0 75.5556C0 112.361 29.8611 142.222 66.6667 142.222C81.0556 142.222 94.3889 137.667 105.278 129.917C107.417 128.389 107.556 125.333 105.694 123.5L62.2222 80V13.7778C62.2222 11.2222 60.0556 9.16667 57.5 9.5V9.52778ZM146.222 80H80L124.083 124.083C125.694 125.694 128.306 125.833 129.972 124.278C140.889 114.083 148.361 100.25 150.5 84.75C150.861 82.1944 148.806 80.0278 146.222 80.0278V80Z" fill="#7B98ED"/>
</g>
</g>
<g id="bottom-tile-1" clip-path="url(#clip5_3339_4368)" transform="translate(0 64)">
<g id="Layer_1_3" transform="translate(-0.0018369 0.00481743)">
<g id="Group_3">
<path id="Vector_9" transform="translate(0.022159 180.353)" d="M624.638 0.0138755V22.1713C624.221 28.2383 619.57 34.569 610.921 39.5808L342.519 194.53C333.495 199.75 322.055 202.444 311.087 202.499C301.758 202.555 292.887 200.708 286.25 196.849L9.74019 37.1929C2.8264 33.1807 -0.380605 27.8079 0.0358888 22.1575V0H624.638V0.0138755Z" fill="#1F3D94"/>
<path id="Vector_10" transform="translate(311.114 180.365)" d="M313.55 0V22.1575C313.134 28.2244 308.483 34.5551 299.834 39.5669L31.4314 194.516C22.4074 199.737 10.9677 202.43 0 202.485V0.0138755H313.536L313.55 0Z" fill="#213E94"/>
<path id="Vector_11" d="M286.273 355.072L9.73484 195.416C-4.68973 187.086 -2.87104 172.551 13.7748 162.944L282.219 7.95245C298.865 -1.65468 324.063 -2.7098 338.473 5.62008L615.011 165.276C629.436 173.606 627.617 188.142 610.971 197.749L342.527 352.74C325.881 362.347 300.684 363.402 286.273 355.072Z" fill="#05237A"/>
</g>
</g>
<g id="tile-icon_3" clip-path="url(#clip6_3339_4368)" transform="matrix(0.866025 0.5 -0.866025 0.5 330 111)">
<path id="Vector_12" d="M20 145C17.25 145 15 142.75 15 140V20C15 17.25 17.25 15 20 15H70V40C70 45.5312 74.4687 50 80 50H105V140C105 142.75 102.75 145 100 145H20ZM20 0C8.96875 0 0 8.96875 0 20V140C0 151.031 8.96875 160 20 160H100C111.031 160 120 151.031 120 140V48.2812C120 42.9687 117.906 37.875 114.156 34.125L85.8437 5.84375C82.0937 2.09375 77.0312 0 71.7187 0H20ZM37.5 80C33.3437 80 30 83.3437 30 87.5C30 91.6562 33.3437 95 37.5 95H82.5C86.6562 95 90 91.6562 90 87.5C90 83.3437 86.6562 80 82.5 80H37.5ZM37.5 110C33.3437 110 30 113.344 30 117.5C30 121.656 33.3437 125 37.5 125H82.5C86.6562 125 90 121.656 90 117.5C90 113.344 86.6562 110 82.5 110H37.5Z" fill="#7B98ED"/>
</g>
</g>
<g id="top-tile" clip-path="url(#clip7_3339_4368)">
<g id="Layer_1_4" transform="translate(-0.00570649 0.00518434)">
<g id="Group_4">
<path id="Vector_13" transform="translate(0.0220098 180.35)" d="M624.638 0.0138755V22.1713C624.221 28.2383 619.57 34.569 610.921 39.5808L342.519 194.53C333.495 199.75 322.055 202.444 311.087 202.499C301.758 202.555 292.887 200.708 286.25 196.849L9.74019 37.1929C2.8264 33.1807 -0.380605 27.8079 0.0358888 22.1575V0H624.638V0.0138755Z" fill="url(#paint1_linear_3339_4368)"/>
<path id="Vector_14" transform="translate(311.108 180.364)" d="M313.55 0V22.1575C313.134 28.2244 308.483 34.5551 299.834 39.5669L31.4314 194.516C22.4074 199.737 10.9677 202.43 0 202.485V0.0138755H313.536L313.55 0Z" fill="url(#paint2_linear_3339_4368)"/>
<path id="Vector_15" d="M286.273 355.072L9.73484 195.416C-4.68973 187.086 -2.87104 172.551 13.7748 162.944L282.219 7.95245C298.865 -1.65468 324.063 -2.7098 338.473 5.62008L615.011 165.276C629.436 173.606 627.617 188.142 610.971 197.749L342.527 352.74C325.881 362.347 300.684 363.402 286.273 355.072Z" fill="url(#paint3_linear_3339_4368)"/>
</g>
</g>
<path id="Vector_16" transform="matrix(0.866025 0.5 -0.866025 0.5 267.693 74)" d="M134.763 109.812C129.744 109.477 123.957 108.597 119.392 107.275C118.537 107.028 114.996 105.726 114.096 105.313C98.2036 97.9518 87.1324 81.8815 87.1324 63.2384C87.1324 37.667 107.936 16.8382 133.524 16.8382C158.884 16.8382 179.548 37.3117 179.903 62.5936H196.663C196.308 28.0747 168.13 0.0991464 133.524 0.0991464C98.7116 0.0991464 70.3765 28.4176 70.3765 63.2384C70.3765 87.2438 83.877 108.122 103.644 118.789C107.213 120.677 112.336 122.622 114.075 123.155C119.71 124.832 126.625 125.948 132.781 126.415C134.871 126.572 142.17 126.654 144.298 126.662H259.711V109.969H144.492C142.959 109.969 136.263 109.911 134.763 109.812ZM144.492 83.6002C143.273 83.6002 136.899 83.5588 135.722 83.4597C133.727 83.2905 130.835 82.993 128.976 82.5677C126.877 82.0056 124.907 81.2622 124.018 80.7748C117.793 77.4075 113.551 70.823 113.551 63.2384C113.551 52.2042 122.486 43.2563 133.524 43.2563C144.331 43.2563 153.118 51.8531 153.469 62.5936H169.572C169.233 42.9713 153.237 27.1576 133.524 27.1576C113.592 27.1576 97.4352 43.31 97.4352 63.2384C97.4352 77.2919 105.491 89.4291 117.223 95.3735C119.028 96.4314 122.424 97.5387 123.39 97.7906C126.704 98.6623 131.153 99.2568 134.763 99.5214C136.098 99.6328 142.633 99.6826 144.013 99.6906V99.7155H259.707V83.6002H144.492ZM60.0492 126.6H43.1779V16.8754H18.5237V0H60.0492V126.6ZM0 25.3069V41.5337H18.5237V126.6H34.734V25.3069H0Z" fill="url(#paint4_linear_3339_4368)"/>
</g>
</g>
</g>
</g>
<defs>
<radialGradient id="paint0_radial_3339_4368" cx="0" cy="0" r="1" gradientUnits="userSpaceOnUse" gradientTransform="translate(721 343.158) rotate(90) scale(457.127 776.388)">
<stop offset="0.5" stop-color="#D9D9D9"/>
<stop offset="0.862306" stop-color="#737373" stop-opacity="0.25"/>
</radialGradient>
<linearGradient id="paint1_linear_3339_4368" x1="13.7124" y1="24.6714" x2="311.848" y2="192.079" gradientUnits="userSpaceOnUse">
<stop stop-color="#90ACFF"/>
<stop offset="1" stop-color="#7E9DF9"/>
</linearGradient>
<linearGradient id="paint2_linear_3339_4368" x1="66.5967" y1="194.886" x2="0.762309" y2="186.422" gradientUnits="userSpaceOnUse">
<stop stop-color="#3F66DA"/>
<stop offset="1" stop-color="#7E9DF9"/>
</linearGradient>
<linearGradient id="paint3_linear_3339_4368" x1="203.714" y1="163.64" x2="446.361" y2="302.833" gradientUnits="userSpaceOnUse">
<stop stop-color="#7396FF"/>
<stop offset="1" stop-color="#4675FF"/>
</linearGradient>
<linearGradient id="paint4_linear_3339_4368" x1="60.5544" y1="106.853" x2="142.015" y2="-75.7838" gradientUnits="userSpaceOnUse">
<stop stop-color="#ECF1FF"/>
<stop offset="1" stop-color="#B6C8FA"/>
</linearGradient>
<clipPath id="clip0_3339_4368">
<rect width="650" height="780" fill="white"/>
</clipPath>
<clipPath id="clip1_3339_4368">
<rect width="624.741" height="382.841" fill="white"/>
</clipPath>
<clipPath id="clip2_3339_4368">
<rect width="160" height="160" fill="white"/>
</clipPath>
<clipPath id="clip3_3339_4368">
<rect width="624.741" height="382.841" fill="white"/>
</clipPath>
<clipPath id="clip4_3339_4368">
<rect width="160" height="142.222" fill="white"/>
</clipPath>
<clipPath id="clip5_3339_4368">
<rect width="624.741" height="382.841" fill="white"/>
</clipPath>
<clipPath id="clip6_3339_4368">
<rect width="120" height="160" fill="white"/>
</clipPath>
<clipPath id="clip7_3339_4368">
<rect width="624.741" height="382.841" fill="white"/>
</clipPath>
</defs>
</svg>
